<svg width="3000" viewBox="0 0 255 252" fill="none" xmlns="http://www.w3.org/2000/svg" height="2964.706"><path d="M216.818 214.202h-37.586v-58.281c0-13.898-.251-31.789-19.549-31.789-19.576 0-22.571 15.142-22.571 30.777v59.289H99.525V94.348h36.083v16.378h.505a39.365 39.365 0 0 1 15.099-14.551 39.86 39.86 0 0 1 20.502-4.809c38.096 0 45.119 24.811 45.119 57.088l-.015 65.748zM57.116 77.965a21.967 21.967 0 0 1-12.119-3.638 21.643 21.643 0 0 1-8.035-9.69 21.399 21.399 0 0 1-1.244-12.479A21.531 21.531 0 0 1 41.686 41.1a21.878 21.878 0 0 1 11.167-5.912 22.013 22.013 0 0 1 12.602 1.227 21.766 21.766 0 0 1 9.79 7.952 21.414 21.414 0 0 1 2.02 20.263 21.585 21.585 0 0 1-4.727 7.007 21.827 21.827 0 0 1-7.076 4.683 22 22 0 0 1-8.346 1.646zm18.793 136.237H38.284V94.347h37.625v119.855zM235.556.211H19.396A18.61 18.61 0 0 0 6.254 5.427 18.242 18.242 0 0 0 .678 18.315v214.918a18.253 18.253 0 0 0 5.571 12.897 18.62 18.62 0 0 0 13.148 5.226h216.159a18.663 18.663 0 0 0 13.184-5.211 18.29 18.29 0 0 0 5.609-12.912V18.299a18.28 18.28 0 0 0-5.613-12.903 18.647 18.647 0 0 0-13.18-5.2" fill="#000"/></svg>